<mxfile host="65bd71144e">
    <diagram id="qZYNdlMuRwlERq4sOI2e" name="ページ1">
        <mxGraphModel dx="916" dy="721" grid="1" gridSize="10" guides="1" tooltips="1" connect="1" arrows="1" fold="1" page="1" pageScale="1" pageWidth="827" pageHeight="1169" math="0" shadow="0">
            <root>
                <mxCell id="0"/>
                <mxCell id="1" parent="0"/>
                <mxCell id="8qm7KGSYa4LiNyU_RjUq-4" value="" style="rounded=0;orthogonalLoop=1;jettySize=auto;html=1;endArrow=classic;endFill=1;" parent="1" source="8qm7KGSYa4LiNyU_RjUq-1" target="8qm7KGSYa4LiNyU_RjUq-3" edge="1">
                    <mxGeometry relative="1" as="geometry"/>
                </mxCell>
                <mxCell id="4" value="投稿ボタン" style="edgeLabel;html=1;align=center;verticalAlign=middle;resizable=0;points=[];" parent="8qm7KGSYa4LiNyU_RjUq-4" vertex="1" connectable="0">
                    <mxGeometry x="-0.2902" relative="1" as="geometry">
                        <mxPoint as="offset"/>
                    </mxGeometry>
                </mxCell>
                <mxCell id="8qm7KGSYa4LiNyU_RjUq-6" value="" style="edgeStyle=none;rounded=0;orthogonalLoop=1;jettySize=auto;html=1;endArrow=classic;endFill=1;" parent="1" source="8qm7KGSYa4LiNyU_RjUq-1" target="8qm7KGSYa4LiNyU_RjUq-5" edge="1">
                    <mxGeometry relative="1" as="geometry"/>
                </mxCell>
                <mxCell id="2" value="削除ボタン" style="edgeLabel;html=1;align=center;verticalAlign=middle;resizable=0;points=[];" parent="8qm7KGSYa4LiNyU_RjUq-6" vertex="1" connectable="0">
                    <mxGeometry x="-0.1031" y="5" relative="1" as="geometry">
                        <mxPoint as="offset"/>
                    </mxGeometry>
                </mxCell>
                <mxCell id="8qm7KGSYa4LiNyU_RjUq-8" value="" style="edgeStyle=none;rounded=0;orthogonalLoop=1;jettySize=auto;html=1;endArrow=classic;endFill=1;entryX=0.5;entryY=0;entryDx=0;entryDy=0;" parent="1" source="8qm7KGSYa4LiNyU_RjUq-1" target="6" edge="1">
                    <mxGeometry relative="1" as="geometry">
                        <mxPoint x="388" y="160" as="targetPoint"/>
                    </mxGeometry>
                </mxCell>
                <mxCell id="3" value="編集ボタン" style="edgeLabel;html=1;align=center;verticalAlign=middle;resizable=0;points=[];" parent="8qm7KGSYa4LiNyU_RjUq-8" vertex="1" connectable="0">
                    <mxGeometry x="-0.4286" relative="1" as="geometry">
                        <mxPoint x="-1" y="10" as="offset"/>
                    </mxGeometry>
                </mxCell>
                <mxCell id="8qm7KGSYa4LiNyU_RjUq-1" value="&lt;span&gt;楽曲投稿画面&lt;br&gt;p71&lt;br&gt;&lt;/span&gt;" style="rounded=0;whiteSpace=wrap;html=1;" parent="1" vertex="1">
                    <mxGeometry x="328" y="20" width="120" height="60" as="geometry"/>
                </mxCell>
                <mxCell id="8qm7KGSYa4LiNyU_RjUq-10" value="" style="edgeStyle=none;rounded=0;orthogonalLoop=1;jettySize=auto;html=1;endArrow=classic;endFill=1;" parent="1" source="8qm7KGSYa4LiNyU_RjUq-3" target="8qm7KGSYa4LiNyU_RjUq-9" edge="1">
                    <mxGeometry relative="1" as="geometry"/>
                </mxCell>
                <mxCell id="8qm7KGSYa4LiNyU_RjUq-13" value="" style="edgeStyle=none;rounded=0;orthogonalLoop=1;jettySize=auto;html=1;endArrow=classic;endFill=1;" parent="1" source="8qm7KGSYa4LiNyU_RjUq-3" target="8qm7KGSYa4LiNyU_RjUq-12" edge="1">
                    <mxGeometry relative="1" as="geometry"/>
                </mxCell>
                <mxCell id="8qm7KGSYa4LiNyU_RjUq-17" value="" style="edgeStyle=none;rounded=0;orthogonalLoop=1;jettySize=auto;html=1;endArrow=classic;endFill=1;startArrow=none;startFill=0;" parent="1" source="8qm7KGSYa4LiNyU_RjUq-3" target="8qm7KGSYa4LiNyU_RjUq-16" edge="1">
                    <mxGeometry relative="1" as="geometry"/>
                </mxCell>
                <mxCell id="8qm7KGSYa4LiNyU_RjUq-18" value="曲の追加" style="edgeLabel;html=1;align=center;verticalAlign=middle;resizable=0;points=[];" parent="8qm7KGSYa4LiNyU_RjUq-17" vertex="1" connectable="0">
                    <mxGeometry x="-0.1406" relative="1" as="geometry">
                        <mxPoint as="offset"/>
                    </mxGeometry>
                </mxCell>
                <mxCell id="8qm7KGSYa4LiNyU_RjUq-3" value="投稿画面&lt;br&gt;p72" style="rounded=0;whiteSpace=wrap;html=1;" parent="1" vertex="1">
                    <mxGeometry x="141" y="150" width="120" height="60" as="geometry"/>
                </mxCell>
                <mxCell id="8qm7KGSYa4LiNyU_RjUq-5" value="投稿済み曲一覧画面&lt;br&gt;p75" style="rounded=0;whiteSpace=wrap;html=1;" parent="1" vertex="1">
                    <mxGeometry x="640" y="260" width="120" height="60" as="geometry"/>
                </mxCell>
                <mxCell id="8qm7KGSYa4LiNyU_RjUq-25" style="edgeStyle=none;rounded=0;orthogonalLoop=1;jettySize=auto;html=1;startArrow=classic;startFill=1;endArrow=classic;endFill=1;" parent="1" source="8qm7KGSYa4LiNyU_RjUq-7" target="8qm7KGSYa4LiNyU_RjUq-9" edge="1">
                    <mxGeometry relative="1" as="geometry"/>
                </mxCell>
                <mxCell id="8qm7KGSYa4LiNyU_RjUq-26" style="edgeStyle=none;rounded=0;orthogonalLoop=1;jettySize=auto;html=1;entryX=0.5;entryY=0;entryDx=0;entryDy=0;startArrow=classic;startFill=1;endArrow=classic;endFill=1;" parent="1" source="8qm7KGSYa4LiNyU_RjUq-7" target="8qm7KGSYa4LiNyU_RjUq-12" edge="1">
                    <mxGeometry relative="1" as="geometry"/>
                </mxCell>
                <mxCell id="8qm7KGSYa4LiNyU_RjUq-27" style="edgeStyle=none;rounded=0;orthogonalLoop=1;jettySize=auto;html=1;startArrow=classic;startFill=1;endArrow=classic;endFill=1;" parent="1" source="8qm7KGSYa4LiNyU_RjUq-7" target="8qm7KGSYa4LiNyU_RjUq-16" edge="1">
                    <mxGeometry relative="1" as="geometry"/>
                </mxCell>
                <mxCell id="8qm7KGSYa4LiNyU_RjUq-28" value="曲の追加" style="edgeLabel;html=1;align=center;verticalAlign=middle;resizable=0;points=[];" parent="8qm7KGSYa4LiNyU_RjUq-27" vertex="1" connectable="0">
                    <mxGeometry x="-0.166" y="-1" relative="1" as="geometry">
                        <mxPoint as="offset"/>
                    </mxGeometry>
                </mxCell>
                <mxCell id="8qm7KGSYa4LiNyU_RjUq-7" value="編集画面&lt;br&gt;p73" style="whiteSpace=wrap;html=1;rounded=0;" parent="1" vertex="1">
                    <mxGeometry x="339" y="190" width="120" height="40" as="geometry"/>
                </mxCell>
                <mxCell id="8qm7KGSYa4LiNyU_RjUq-15" style="edgeStyle=none;rounded=0;orthogonalLoop=1;jettySize=auto;html=1;endArrow=classic;endFill=1;" parent="1" source="8qm7KGSYa4LiNyU_RjUq-9" target="8qm7KGSYa4LiNyU_RjUq-3" edge="1">
                    <mxGeometry relative="1" as="geometry"/>
                </mxCell>
                <mxCell id="8qm7KGSYa4LiNyU_RjUq-9" value="投稿ファイル選択画面&lt;br&gt;&amp;amp;&lt;br&gt;投稿画像選択画面" style="whiteSpace=wrap;html=1;rounded=0;" parent="1" vertex="1">
                    <mxGeometry x="70" y="300" width="140" height="60" as="geometry"/>
                </mxCell>
                <mxCell id="8qm7KGSYa4LiNyU_RjUq-14" style="edgeStyle=none;rounded=0;orthogonalLoop=1;jettySize=auto;html=1;endArrow=classic;endFill=1;" parent="1" source="8qm7KGSYa4LiNyU_RjUq-12" target="8qm7KGSYa4LiNyU_RjUq-3" edge="1">
                    <mxGeometry relative="1" as="geometry"/>
                </mxCell>
                <mxCell id="8qm7KGSYa4LiNyU_RjUq-12" value="楽曲編集画面&lt;br&gt;p37" style="whiteSpace=wrap;html=1;rounded=0;" parent="1" vertex="1">
                    <mxGeometry x="414" y="300" width="120" height="60" as="geometry"/>
                </mxCell>
                <mxCell id="8qm7KGSYa4LiNyU_RjUq-16" value="楽曲投稿画面&lt;br&gt;ｐ71" style="whiteSpace=wrap;html=1;rounded=0;" parent="1" vertex="1">
                    <mxGeometry x="260" y="450" width="120" height="60" as="geometry"/>
                </mxCell>
                <mxCell id="8qm7KGSYa4LiNyU_RjUq-33" style="edgeStyle=none;rounded=0;orthogonalLoop=1;jettySize=auto;html=1;entryX=0.668;entryY=0.017;entryDx=0;entryDy=0;entryPerimeter=0;startArrow=classic;startFill=1;endArrow=classic;endFill=1;exitX=0.443;exitY=1.063;exitDx=0;exitDy=0;exitPerimeter=0;" parent="1" source="8qm7KGSYa4LiNyU_RjUq-5" target="8qm7KGSYa4LiNyU_RjUq-16" edge="1">
                    <mxGeometry relative="1" as="geometry">
                        <mxPoint x="630" y="350.75577406814546" as="sourcePoint"/>
                    </mxGeometry>
                </mxCell>
                <mxCell id="8qm7KGSYa4LiNyU_RjUq-34" value="削除ボタン" style="edgeLabel;html=1;align=center;verticalAlign=middle;resizable=0;points=[];" parent="8qm7KGSYa4LiNyU_RjUq-33" vertex="1" connectable="0">
                    <mxGeometry x="-0.1572" y="3" relative="1" as="geometry">
                        <mxPoint as="offset"/>
                    </mxGeometry>
                </mxCell>
                <mxCell id="7" style="rounded=0;orthogonalLoop=1;jettySize=auto;html=1;entryX=0.5;entryY=0;entryDx=0;entryDy=0;" parent="1" source="6" target="8qm7KGSYa4LiNyU_RjUq-7" edge="1">
                    <mxGeometry relative="1" as="geometry"/>
                </mxCell>
                <mxCell id="6" value="編集曲一覧&lt;br&gt;ｐ73" style="rounded=0;whiteSpace=wrap;html=1;" parent="1" vertex="1">
                    <mxGeometry x="350" y="120" width="98" height="50" as="geometry"/>
                </mxCell>
            </root>
        </mxGraphModel>
    </diagram>
</mxfile>